<?xml version="1.0" standalone="no"?>
<!DOCTYPE svg PUBLIC "-//W3C//DTD SVG 20010904//EN"
 "http://www.w3.org/TR/2001/REC-SVG-20010904/DTD/svg10.dtd">
<svg version="1.0" xmlns="http://www.w3.org/2000/svg"
 width="80.000000pt" height="20.000000pt" viewBox="0 0 2000.000000 328.000000"
 preserveAspectRatio="xMidYMid meet">

<g transform="translate(0.000000,328.000000) scale(0.100000,-0.100000)"
fill="#000000" stroke="none">
<path d="M620 3264 c-51 -22 -96 -60 -130 -108 -58 -85 -60 -107 -60 -687 0
-305 4 -538 9 -552 33 -85 148 -91 190 -10 8 15 11 183 11 558 0 573 0 578 49
605 13 6 196 10 523 10 566 0 553 1 616 -75 44 -55 52 -107 52 -356 0 -245 4
-261 72 -326 61 -59 83 -63 335 -63 128 0 245 -5 266 -11 49 -13 105 -63 128
-114 18 -38 19 -91 19 -947 0 -682 -3 -914 -12 -933 -26 -57 16 -55 -1026 -55
l-959 0 -26 24 c-14 13 -29 36 -32 50 -3 14 -7 38 -10 52 -15 70 -106 97 -163
49 -40 -33 -47 -71 -28 -145 18 -70 59 -135 110 -174 78 -59 16 -56 1114 -56
1119 0 1042 -5 1129 66 27 22 54 59 75 102 l33 67 0 1045 0 1045 -24 60 c-22
56 -52 89 -420 456 -370 371 -400 398 -454 418 -57 21 -70 21 -705 21 -552 -1
-652 -3 -682 -16z"/>
<path d="M3740 3218 c-18 -13 -43 -41 -54 -63 l-21 -40 0 -1475 0 -1475 21
-40 c24 -47 76 -85 114 -85 39 0 90 39 117 89 l23 44 0 1467 0 1467 -23 44
c-27 50 -78 89 -117 89 -15 0 -42 -10 -60 -22z"/>
<path d="M5339 3215 c-322 -52 -556 -244 -624 -510 -18 -70 -20 -250 -4 -327
6 -29 28 -89 49 -133 84 -177 236 -285 705 -502 125 -58 240 -136 273 -185 34
-53 43 -161 18 -235 -20 -62 -84 -128 -152 -159 -196 -91 -551 -33 -815 134
-36 23 -69 42 -73 42 -3 0 -6 -103 -6 -230 0 -265 -12 -236 120 -290 272 -112
683 -133 935 -47 332 113 510 370 492 707 -17 313 -143 456 -597 677 -360 175
-437 234 -462 354 -9 45 -8 64 5 109 46 156 210 228 461 202 166 -17 284 -55
469 -150 4 -2 7 96 7 217 l0 220 -27 15 c-44 22 -182 63 -274 81 -117 23 -389
29 -500 10z"/>
<path d="M13400 1980 l0 -1230 235 0 235 0 0 1230 0 1230 -235 0 -235 0 0
-1230z"/>
<path d="M15780 2378 c0 -899 2 -932 54 -1085 40 -118 94 -209 174 -294 200
-213 469 -301 845 -277 396 26 684 235 795 578 51 155 52 183 52 1076 l0 834
-230 0 -230 0 0 -817 c0 -683 -3 -830 -15 -888 -53 -252 -241 -380 -529 -362
-187 12 -329 95 -400 235 -55 108 -56 130 -56 1017 l0 815 -230 0 -230 0 0
-832z"/>
<path d="M14480 2825 l0 -225 -135 0 -135 0 0 -165 0 -165 134 0 134 0 4 -537
c4 -513 5 -542 26 -616 54 -196 169 -311 364 -365 48 -13 100 -17 223 -16 142
1 169 4 235 25 l75 25 3 188 c2 149 0 187 -10 183 -128 -57 -144 -61 -234 -61
-84 -1 -94 1 -140 29 -36 22 -56 44 -74 80 l-25 50 -3 508 -3 507 231 0 230 0
0 165 0 165 -230 0 -230 0 0 225 0 225 -220 0 -220 0 0 -225z"/>
<path d="M19075 2620 c-165 -26 -306 -110 -410 -244 l-45 -58 0 141 0 141
-220 0 -220 0 0 -1275 0 -1275 220 0 220 0 1 488 c0 454 1 485 16 462 9 -14
51 -59 92 -100 128 -127 253 -174 461 -173 209 1 354 55 490 180 218 202 326
536 292 901 -14 154 -41 260 -93 370 -104 224 -278 375 -489 426 -83 20 -238
28 -315 16z m187 -404 c144 -72 231 -213 259 -421 28 -217 -22 -436 -129 -556
-144 -161 -387 -185 -559 -54 -97 74 -157 168 -189 300 -23 94 -24 305 -1 398
42 172 149 292 312 350 38 13 73 17 150 14 86 -3 108 -7 157 -31z"/>
<path d="M9513 2606 c-132 -33 -264 -130 -329 -241 l-29 -50 -3 143 -3 142
-219 0 -220 0 0 -925 0 -925 219 0 220 0 3 568 c4 607 5 609 58 729 26 60 110
145 173 176 135 66 294 34 361 -72 60 -95 60 -89 64 -773 l3 -628 219 0 219 0
4 578 c3 621 3 615 58 729 32 65 108 139 177 171 44 21 72 27 127 27 130 0
208 -52 256 -171 l24 -59 3 -637 3 -638 220 0 220 0 -3 698 c-4 773 -1 741
-72 887 -63 128 -156 209 -294 257 -58 20 -87 23 -207 23 -117 0 -152 -4 -210
-22 -128 -40 -243 -132 -316 -253 l-37 -59 -31 63 c-58 118 -153 203 -277 247
-75 27 -300 36 -381 15z"/>
<path d="M12240 2604 c-145 -31 -287 -107 -365 -196 -87 -98 -120 -205 -113
-364 4 -91 8 -109 41 -178 61 -129 169 -226 340 -306 329 -154 369 -177 393
-235 18 -44 18 -108 -1 -145 -36 -70 -146 -106 -295 -96 -131 8 -236 37 -363
100 l-107 53 2 -201 3 -201 85 -32 c139 -52 249 -68 455 -67 149 1 193 4 256
22 200 54 349 177 404 332 43 121 38 282 -10 388 -32 70 -121 161 -220 227
-44 29 -163 93 -265 143 -139 67 -195 100 -225 131 -39 41 -40 44 -40 111 0
63 3 72 30 101 52 55 102 71 221 70 152 0 291 -30 397 -83 l37 -18 0 193 0
194 -65 22 c-151 49 -448 67 -595 35z"/>
<path d="M6632 1898 c3 -631 5 -709 21 -763 80 -278 298 -419 622 -402 61 4
137 14 170 23 130 35 246 119 312 227 l38 61 3 -147 3 -147 219 0 220 0 0 925
0 925 -219 0 -220 0 -3 -562 c-4 -537 -5 -566 -26 -640 -27 -98 -43 -130 -100
-191 -101 -107 -265 -144 -410 -93 -69 25 -118 70 -154 144 l-33 67 -3 637 -3
638 -220 0 -220 0 3 -702z"/>
<path d="M64 1722 c-12 -9 -27 -27 -33 -39 -8 -15 -11 -183 -11 -558 0 -375 3
-543 11 -558 6 -12 21 -30 33 -39 20 -16 98 -18 1194 -18 l1174 0 29 29 29 29
0 557 0 557 -29 29 -29 29 -1174 0 c-1096 0 -1174 -2 -1194 -18z m1108 -349
c9 -10 68 -123 133 -252 123 -246 131 -275 86 -298 -33 -16 -54 -3 -83 49
l-23 43 -151 3 -150 2 -22 -45 c-28 -57 -61 -75 -97 -51 -14 9 -25 26 -25 38
0 23 231 481 257 510 21 23 55 23 75 1z m429 7 c18 -10 19 -24 19 -275 l0
-265 -24 -15 c-23 -16 -54 -11 -68 9 -4 6 -8 129 -8 273 0 239 2 263 18 272
22 13 39 13 63 1z"/>
<path d="M1087 1133 c-26 -51 -47 -97 -47 -103 0 -6 35 -10 90 -10 66 0 90 3
89 13 0 6 -19 53 -43 102 l-43 90 -46 -92z"/>
</g>
</svg>
